<?xml version="1.0" standalone="no"?>
<!DOCTYPE svg PUBLIC "-//W3C//DTD SVG 20010904//EN"
 "http://www.w3.org/TR/2001/REC-SVG-20010904/DTD/svg10.dtd">
<svg version="1.0" xmlns="http://www.w3.org/2000/svg"
 width="740.000000pt" height="740.000000pt" viewBox="0 0 740.000000 740.000000"
 preserveAspectRatio="xMidYMid meet">
<metadata>
Created by potrace 1.11, written by Peter Selinger 2001-2013
</metadata>
<g transform="translate(0.000000,740.000000) scale(0.100000,-0.100000)"
fill="#000000" stroke="none">
<path d="M5572 6550 c-126 -30 -152 -212 -40 -280 28 -17 51 -20 163 -20 237
0 419 -41 622 -140 328 -160 579 -445 693 -788 39 -119 58 -218 69 -360 9
-130 21 -160 78 -198 39 -26 124 -25 160 2 71 53 84 114 64 296 -48 420 -250
812 -557 1080 -310 270 -715 421 -1121 417 -54 -1 -113 -5 -131 -9z"/>
<path d="M5614 6031 c-83 -14 -134 -72 -134 -151 0 -54 27 -102 72 -130 27
-16 51 -20 129 -20 319 0 581 -137 744 -389 83 -128 118 -240 134 -421 9 -108
20 -133 74 -174 38 -28 126 -28 164 0 60 45 68 67 67 177 -8 528 -390 981
-919 1091 -85 18 -274 28 -331 17z"/>
<path d="M3095 5724 c-22 -2 -89 -9 -150 -14 -218 -21 -519 -82 -770 -156
-550 -163 -1102 -510 -1467 -921 -321 -361 -518 -724 -623 -1143 -66 -263 -70
-295 -70 -545 0 -217 2 -237 29 -350 62 -266 139 -445 274 -635 84 -119 296
-334 425 -429 313 -233 667 -393 1123 -509 316 -81 568 -125 904 -159 248 -25
882 -25 1130 0 651 65 1222 214 1641 428 397 202 707 480 902 808 135 227 218
546 218 841 0 187 -18 326 -71 537 -49 199 -96 336 -169 488 -315 660 -913
1204 -1641 1495 -275 109 -659 204 -1000 246 -118 14 -594 27 -685 18z m740
-303 c530 -72 989 -239 1390 -506 540 -359 927 -872 1084 -1434 121 -431 101
-825 -59 -1158 -124 -256 -377 -519 -671 -695 -458 -276 -1083 -446 -1829
-498 -187 -13 -643 -13 -830 0 -1319 91 -2236 552 -2534 1272 -150 363 -132
837 49 1288 357 888 1235 1542 2300 1715 218 36 354 44 655 40 224 -3 331 -8
445 -24z"/>
<path d="M1870 3789 c-88 -23 -151 -59 -193 -112 -25 -30 -32 -49 -35 -96 -4
-52 0 -66 29 -121 91 -171 349 -306 658 -342 225 -26 434 40 495 156 81 158
-92 362 -398 472 -185 66 -404 83 -556 43z"/>
<path d="M4396 3795 c-363 -75 -636 -299 -587 -481 32 -117 205 -203 411 -204
141 0 351 50 485 117 356 178 410 456 107 554 -86 28 -311 36 -416 14z"/>
</g>
</svg>
