<svg xmlns="http://www.w3.org/2000/svg" viewBox="0 0 301.86 178.59"><defs><style>.cls-1{fill:#fff;}</style></defs><title>brand</title><g id="图层_2" data-name="图层 2"><g id="图层_5" data-name="图层 5"><path class="cls-1" d="M60.94,112.52,102.51,70.7a36.51,36.51,0,0,0-3.18-3.64,41.36,41.36,0,1,0,0,58.49l-7.07-7.07a31.36,31.36,0,1,1-3.94-47.68L53.85,105.47Z"/><path class="cls-1" d="M178.33,65.48l-6.62,7.39a31.4,31.4,0,0,1-41.92,46.76,10.56,10.56,0,0,1-1.75-2.05,31.28,31.28,0,0,1,3-45.39.55.55,0,0,0-.09-.17l-7.54-6.72c-19.67,16.87-17.1,48.82,2,63.67,15.31,11.91,40.17,10.55,54.08-3A41.4,41.4,0,0,0,178.33,65.48Z"/><path class="cls-1" d="M207.55,70.8c-11.91,15.31-10.55,40.17,3,54.08,13.73,14.16,38.69,20.61,60.66-1.18V68.86l.06-.06C254.35,49.13,222.4,51.7,207.55,70.8Zm53.61,48.83A31.41,31.41,0,0,1,216.89,75.2a10.56,10.56,0,0,1,2.05-1.75,31.26,31.26,0,0,1,42.22-.31Z"/><path class="cls-1" d="M150.93,178.59a89,89,0,0,1-57.83-21.26,65.92,65.92,0,0,1-26.46,5.47A66.63,66.63,0,1,1,82.83,31.53,89.3,89.3,0,0,1,219,31.5a66.64,66.64,0,1,1,16.22,131.27,65.93,65.93,0,0,1-26.44-5.46A89,89,0,0,1,150.93,178.59ZM94.81,145.42l2.53,2.32a79.28,79.28,0,0,0,107.21,0l2.53-2.32,3.07,1.52a56.06,56.06,0,0,0,25.08,5.85A56.63,56.63,0,1,0,218.66,42l-3.27,1-2.12-2.69a79.3,79.3,0,0,0-124.7,0L86.45,43l-3.27-1a56.64,56.64,0,1,0-16.55,110.8,56.05,56.05,0,0,0,25.1-5.87Z"/></g></g></svg>